<?xml version="1.0" standalone="no"?>
<!DOCTYPE svg PUBLIC "-//W3C//DTD SVG 20010904//EN"
 "http://www.w3.org/TR/2001/REC-SVG-20010904/DTD/svg10.dtd">
<svg version="1.0" xmlns="http://www.w3.org/2000/svg"
 width="500.000000pt" height="500.000000pt" viewBox="0 0 500.000000 500.000000"
 preserveAspectRatio="xMidYMid meet">

<g transform="translate(0.000000,500.000000) scale(0.100000,-0.100000)"
fill="#000000" stroke="none">
<path d="M1806 3849 c-27 -6 -81 -25 -120 -43 -166 -77 -246 -208 -246 -401 0
-133 33 -221 115 -313 63 -70 146 -122 383 -242 314 -157 360 -215 350 -432
l-5 -98 87 0 87 0 29 63 c27 58 29 70 29 192 0 121 -2 134 -28 189 -62 134
-126 182 -447 339 -243 119 -301 161 -347 255 -25 51 -28 67 -28 162 0 124 13
167 67 226 56 61 124 88 223 88 176 1 254 -89 275 -320 4 -47 10 -87 13 -90 3
-3 25 -3 50 1 191 29 218 228 47 346 -94 65 -162 82 -335 85 -82 2 -172 -2
-199 -7z"/>
<path d="M2440 3081 c0 -4 28 -12 63 -15 79 -9 123 -31 145 -70 15 -27 17 -72
20 -353 l3 -323 139 0 139 0 3 323 c3 299 4 324 23 354 24 41 67 61 144 69
145 16 35 24 -309 24 -203 0 -370 -4 -370 -9z"/>
<path d="M3460 3081 c0 -4 31 -11 68 -15 40 -4 82 -15 101 -27 58 -35 61 -54
61 -404 l0 -316 143 3 142 3 5 325 c5 294 7 329 23 354 23 35 65 53 145 62
144 16 39 24 -313 24 -206 0 -375 -4 -375 -9z"/>
<path d="M1544 2601 c-108 -26 -156 -116 -131 -243 l8 -38 109 0 c121 0 117
-2 99 65 -6 22 -14 80 -18 130 -7 97 -8 100 -67 86z"/>
<path d="M1896 2204 c-9 -8 -16 -21 -16 -28 0 -14 52 -90 69 -101 6 -3 18 -19
26 -35 13 -26 13 -30 -1 -44 -19 -19 -74 -21 -98 -3 -17 13 -16 15 15 40 19
15 30 27 26 27 -14 0 -55 -31 -61 -45 -16 -42 94 -64 128 -26 24 26 16 47 -44
115 -28 32 -50 64 -50 72 0 8 11 19 25 26 43 19 157 -37 137 -69 -4 -6 -23
-16 -42 -22 l-35 -11 33 3 c17 2 32 3 32 3 0 -1 -7 -23 -15 -50 -8 -27 -15
-58 -15 -69 0 -20 0 -20 21 -1 16 15 24 16 39 6 24 -15 55 -15 80 -2 13 7 21
7 25 0 7 -12 99 -3 128 12 22 11 21 5 -4 -61 -13 -35 -17 -57 -10 -64 9 -9 31
49 31 84 0 23 36 66 47 56 4 -5 -1 -15 -11 -23 -18 -13 -17 -14 21 -14 23 0
54 5 69 10 36 14 39 8 20 -40 -9 -22 -16 -50 -16 -61 0 -37 18 -10 31 46 12
54 49 108 49 72 0 -8 -6 -18 -12 -20 -25 -10 61 -7 88 3 21 9 29 7 40 -7 12
-17 14 -17 30 -1 15 15 19 15 39 2 27 -17 60 -11 95 17 27 22 24 22 -32 -4
-45 -21 -67 -13 -75 24 l-6 29 -41 -24 c-44 -25 -118 -45 -115 -30 7 38 -25
41 -93 11 -48 -22 -65 -21 -71 2 -5 22 -37 23 -74 3 -31 -17 -64 -15 -79 6
-12 16 -15 16 -53 -5 -43 -25 -76 -29 -87 -12 -3 6 -19 9 -35 5 l-29 -5 30 53
c38 66 38 82 -2 118 -50 44 -124 60 -152 32z m162 -114 c-5 -17 -14 -33 -19
-36 -8 -5 4 37 17 57 11 19 12 8 2 -21z m622 -79 c-11 -21 -30 -37 -30 -25 0
8 30 44 37 44 2 0 -1 -9 -7 -19z m-476 -6 c3 -8 1 -15 -4 -15 -6 0 -10 7 -10
15 0 8 2 15 4 15 2 0 6 -7 10 -15z"/>
<path d="M2894 2188 c-93 -82 -69 -186 33 -143 20 8 38 13 40 11 3 -2 -13 -20
-34 -39 -29 -28 -35 -38 -26 -48 18 -18 42 -3 58 34 8 19 24 42 37 51 16 12
17 15 6 12 -12 -3 -18 0 -18 9 0 12 -6 11 -32 -5 -44 -26 -104 -27 -111 -1
-14 54 67 145 123 139 21 -3 25 -8 23 -33 -1 -19 -13 -40 -33 -57 -32 -29 -32
-35 1 -18 27 15 52 68 45 96 -10 37 -65 33 -112 -8z m60 -180 c-16 -28 -27
-38 -36 -32 -5 3 -2 14 8 25 19 21 39 26 28 7z"/>
<path d="M3007 2023 c-4 -3 -7 -15 -7 -25 0 -17 6 -18 53 -12 52 7 114 31 104
41 -3 3 -16 -2 -29 -11 -28 -20 -74 -21 -82 -1 -6 15 -28 20 -39 8z m23 -18
c0 -8 -4 -15 -10 -15 -5 0 -10 7 -10 15 0 8 5 15 10 15 6 0 10 -7 10 -15z"/>
<path d="M2668 1657 c-2 -146 -6 -177 -21 -200 -27 -42 -72 -64 -143 -72 -35
-4 -64 -11 -64 -16 0 -5 151 -9 370 -9 348 0 455 9 307 24 -71 8 -117 31 -144
73 -15 23 -19 54 -21 200 l-4 173 -138 0 -138 0 -4 -173z"/>
<path d="M3690 1665 c0 -187 -8 -222 -61 -254 -19 -12 -61 -23 -101 -27 -156
-15 -45 -24 307 -24 353 0 461 8 311 25 -80 8 -126 32 -148 76 -15 28 -18 62
-18 202 l0 167 -145 0 -145 0 0 -165z"/>
</g>
</svg>
