<?xml version="1.0" standalone="no"?>
<!DOCTYPE svg PUBLIC "-//W3C//DTD SVG 20010904//EN"
 "http://www.w3.org/TR/2001/REC-SVG-20010904/DTD/svg10.dtd">
<svg version="1.0" xmlns="http://www.w3.org/2000/svg"
 width="500.000000pt" height="500.000000pt" viewBox="0 0 500.000000 500.000000"
 preserveAspectRatio="xMidYMid meet">

<g transform="translate(0.000000,500.000000) scale(0.100000,-0.100000)"
fill="#000000" stroke="none">
<path d="M1575 3730 c-115 -21 -238 -82 -301 -151 -128 -140 -137 -368 -20
-506 48 -57 166 -125 352 -204 217 -91 293 -132 363 -195 103 -93 133 -216 82
-331 -49 -110 -152 -173 -296 -180 -251 -13 -451 119 -567 374 -44 98 -53 76
-42 -109 l9 -153 55 -33 c63 -37 134 -65 240 -94 106 -29 340 -32 420 -4 148
50 258 138 310 248 28 58 30 72 30 174 0 98 -3 116 -26 162 -55 110 -166 183
-469 309 -238 99 -334 164 -380 258 -29 58 -28 185 2 240 81 152 275 209 489
144 122 -37 229 -128 293 -249 18 -33 36 -60 42 -60 10 0 13 190 3 240 -6 28
-15 36 -62 57 -96 42 -207 64 -347 68 -71 2 -152 0 -180 -5z"/>
<path d="M2477 3338 c-8 -28 -6 -29 20 -1 20 21 21 23 4 23 -11 0 -21 -9 -24
-22z"/>
<path d="M2592 3353 c-7 -3 -24 -27 -38 -55 -22 -43 -29 -49 -50 -45 -29 5
-31 1 -5 -13 30 -15 50 -2 77 52 23 45 28 50 52 45 25 -5 25 -4 7 9 -20 15
-23 15 -43 7z"/>
<path d="M2642 3260 c-7 -11 -8 -20 -3 -20 9 0 24 30 18 36 -1 2 -8 -6 -15
-16z"/>
<path d="M2470 3148 c0 -10 26 -13 95 -13 69 0 95 3 95 13 0 9 -26 12 -95 12
-69 0 -95 -3 -95 -12z"/>
<path d="M2470 3020 c0 -12 17 -15 95 -15 78 0 95 3 95 15 0 12 -17 15 -95 15
-78 0 -95 -3 -95 -15z"/>
<path d="M3434 2969 c-3 -6 10 -24 29 -40 22 -18 40 -45 47 -67 6 -21 10 -158
10 -324 l0 -288 -336 0 c-314 0 -335 -1 -332 -17 3 -17 28 -18 336 -21 l333
-2 -3 -353 c-3 -316 -5 -355 -21 -385 -10 -18 -29 -38 -42 -44 -14 -6 -25 -17
-25 -25 0 -10 37 -13 185 -13 147 0 185 3 185 13 0 8 -12 20 -26 27 -60 33
-59 14 -62 719 -3 719 -2 734 54 779 61 49 52 52 -145 52 -119 0 -182 -4 -187
-11z"/>
<path d="M2499 2901 c-16 -16 -29 -38 -29 -47 0 -16 2 -15 16 4 33 48 100 65
144 36 22 -14 22 -12 -3 10 -40 37 -89 35 -128 -3z"/>
<path d="M2647 2821 c-8 -32 -66 -62 -110 -59 -33 3 -36 2 -21 -9 32 -23 83
-16 115 16 16 16 29 39 29 50 0 26 -6 27 -13 2z"/>
<path d="M2470 2648 c0 -10 26 -13 95 -13 69 0 95 3 95 13 0 9 -26 12 -95 12
-69 0 -95 -3 -95 -12z"/>
<path d="M2650 2602 c0 -6 -11 -19 -25 -28 -23 -15 -27 -15 -50 0 -14 9 -25
12 -25 6 0 -18 48 -42 70 -35 20 6 46 52 35 63 -3 3 -5 0 -5 -6z"/>
<path d="M2470 2453 c0 -10 26 -13 95 -13 69 0 95 3 95 13 0 9 -26 12 -95 12
-69 0 -95 -3 -95 -12z"/>
<path d="M2651 2408 c-2 -34 -59 -49 -85 -22 -9 8 -16 11 -16 6 0 -16 36 -42
58 -42 24 0 57 42 49 62 -4 8 -6 7 -6 -4z"/>
<path d="M2470 2290 c0 -5 5 -10 11 -10 5 0 7 5 4 10 -3 6 -8 10 -11 10 -2 0
-4 -4 -4 -10z"/>
<path d="M2625 2221 c-6 -4 -43 -21 -82 -36 -40 -16 -73 -34 -73 -41 0 -8 32
1 92 27 50 21 93 39 95 39 2 0 1 5 -2 10 -8 12 -18 13 -30 1z"/>
<path d="M2524 2060 c-24 -10 -54 -47 -54 -68 0 -7 12 0 26 17 29 35 81 49
114 31 12 -6 24 -9 27 -6 7 7 -60 36 -79 35 -7 0 -23 -4 -34 -9z"/>
<path d="M2637 1934 c-15 -20 -15 -24 -3 -24 8 0 18 9 21 21 10 29 3 31 -18 3z"/>
<path d="M2487 1913 c6 -14 63 -18 63 -4 0 5 -15 11 -34 13 -24 3 -32 0 -29
-9z"/>
<path d="M2495 1795 c-14 -13 -25 -34 -24 -47 l0 -23 9 22 c14 34 66 56 119
50 41 -5 44 -4 26 9 -32 24 -102 18 -130 -11z"/>
<path d="M2645 1711 c-12 -40 -111 -69 -148 -44 -7 4 -4 0 6 -9 21 -20 87 -24
116 -8 19 10 48 67 38 76 -3 3 -8 -4 -12 -15z"/>
</g>
</svg>
